<svg xmlns="http://www.w3.org/2000/svg" width="128" height="114" viewBox="0 0 128 114">
    <g fill="#FFF" fill-rule="nonzero">
        <g fill-opacity=".293">
            <path d="M95.87 68.687C95.87 93.699 75.593 114 50.555 114 25.541 114 5.238 93.723 5.238 68.687c0-8.68 2.44-16.786 6.672-23.697 4.304-7.556-1.722-9.182-2.654-9.182C4.21 35.88.049 31.838 0 26.793c-.072-5.045 3.97-9.206 9.015-9.254 5.046-.071 9.207 3.97 9.255 9.015.024.98.167 6.887 6.791 4.64a45.066 45.066 0 0 1 25.469-7.844c25.061.048 45.34 20.325 45.34 45.337z"/>
            <ellipse cx="27.81" cy="18.269" rx="5.855" ry="5.846"/>
            <ellipse cx="11.709" cy="2.923" rx="2.927" ry="2.923"/>
            <ellipse cx="3.293" cy="44.942" rx="2.561" ry="2.558"/>
        </g>
        <path d="M35.87 63.265H48.7v5.254H29V44.481h19.244v5.254H35.87v4.052h10.902v5.083H35.87v4.395zm35.544-7.28c2.769.961 4.486 3.022 4.486 5.94 0 4.156-3.505 6.594-10.095 6.594h-13.25V44.481h12.55c6.449 0 9.604 2.575 9.604 6.284 0 2.3-1.192 4.155-3.295 5.22zm-7.221-6.594h-4.767v4.636h4.767c2.313 0 3.505-.79 3.505-2.335 0-1.51-1.192-2.3-3.505-2.3zm1.051 14.218c2.384 0 3.646-.79 3.646-2.439 0-1.648-1.262-2.438-3.646-2.438h-5.818v4.877h5.818zM88.134 69c-4.031 0-8.027-1.065-10.34-2.644l2.278-5.014c2.173 1.408 5.257 2.37 8.097 2.37 2.874 0 3.996-.79 3.996-1.958 0-3.812-13.951-1.03-13.951-9.959 0-4.292 3.575-7.795 10.866-7.795 3.19 0 6.485.721 8.903 2.095l-2.138 5.048c-2.348-1.236-4.662-1.855-6.8-1.855-2.91 0-3.96.962-3.96 2.164 0 3.674 13.915.927 13.915 9.787C99 65.429 95.425 69 88.134 69zM27.24 80.612c0-.476.082-.927.244-1.352.162-.425.386-.792.672-1.1a3.123 3.123 0 0 1 1.041-.732c.409-.181.85-.271 1.323-.271.544 0 1.029.096 1.455.289.426.192.77.456 1.033.792a3.6 3.6 0 0 1 .595 1.147c.135.429.203.892.203 1.388 0 .21-.004.37-.012.477H29.44c.09.353.257.622.501.807.245.185.547.277.907.277.508 0 .99-.225 1.443-.673l1.261 1.06c-.692.898-1.635 1.347-2.828 1.347-.676 0-1.278-.143-1.807-.43a3.067 3.067 0 0 1-1.235-1.215c-.295-.524-.442-1.128-.442-1.81zm2.165-.548h2.26c-.044-.37-.165-.661-.365-.876a.996.996 0 0 0-.762-.321.974.974 0 0 0-.742.324c-.202.217-.332.508-.39.873zm4.692 2.574l1.303-1.573c.84.683 1.75 1.025 2.728 1.025.309 0 .546-.053.71-.158a.51.51 0 0 0 .246-.456c0-.183-.096-.332-.29-.447-.194-.115-.568-.238-1.124-.37-.285-.067-.532-.13-.742-.187a8.002 8.002 0 0 1-.666-.217 3.181 3.181 0 0 1-1.08-.62 1.807 1.807 0 0 1-.375-.438 2.167 2.167 0 0 1-.226-.55 2.652 2.652 0 0 1-.085-.692c0-.806.295-1.464.883-1.972.589-.508 1.38-.763 2.374-.763 1.38 0 2.534.378 3.461 1.132l-1.167 1.674c-.787-.56-1.57-.84-2.353-.84-.274 0-.483.053-.628.158a.489.489 0 0 0-.217.414c0 .199.097.353.29.462.194.11.582.231 1.165.367a9.65 9.65 0 0 1 1.314.378c.36.137.684.309.971.515.288.207.502.458.643.754.14.296.21.642.21 1.04 0 .861-.308 1.54-.926 2.037-.618.496-1.443.745-2.476.745-.759 0-1.478-.12-2.159-.36a5.156 5.156 0 0 1-1.784-1.058zm8.166 3.223v-8.555h2.288v.875c.262-.321.543-.573.845-.753.3-.181.674-.271 1.12-.271.387 0 .755.08 1.103.241.348.16.655.386.921.676.266.29.477.654.631 1.09.155.437.232.916.232 1.436 0 .52-.077 1-.232 1.439a3.19 3.19 0 0 1-.628 1.096c-.264.292-.57.519-.918.68-.348.16-.714.24-1.097.24-.45 0-.83-.085-1.141-.256a2.93 2.93 0 0 1-.836-.697v2.759h-2.288zm2.235-5.249c0 .433.128.791.384 1.075.257.284.57.426.942.426.38 0 .696-.14.95-.423.255-.282.382-.649.382-1.102 0-.429-.128-.784-.385-1.066a1.23 1.23 0 0 0-.947-.423 1.22 1.22 0 0 0-.942.426c-.256.284-.384.646-.384 1.087zm5.449 0c0-.465.09-.908.273-1.331.182-.423.43-.79.745-1.103.315-.311.697-.56 1.147-.744.45-.185.93-.277 1.443-.277.677 0 1.29.155 1.84.464.549.31.976.73 1.281 1.257.305.529.458 1.107.458 1.734a3.477 3.477 0 0 1-1.015 2.434 3.46 3.46 0 0 1-1.144.745c-.45.184-.931.277-1.443.277a3.76 3.76 0 0 1-1.435-.274 3.453 3.453 0 0 1-1.141-.74 3.395 3.395 0 0 1-.74-1.101 3.403 3.403 0 0 1-.27-1.34zm2.223 0c0 .41.132.76.396 1.052.264.292.594.438.99.438.402 0 .729-.143.979-.43.25-.285.375-.639.375-1.06 0-.409-.13-.76-.393-1.051a1.269 1.269 0 0 0-.985-.438c-.403 0-.73.144-.983.432-.252.288-.379.64-.379 1.057zm5.749 3.295v-6.601h2.288v1.328c.39-.957 1.036-1.436 1.936-1.436h.117v2.437h-.194c-1.24 0-1.86.74-1.86 2.222v2.05H57.92zm4.598-4.737v-1.864h.768v-1.674h2.283v1.674h1.513v1.864h-1.513v2.234c0 .23.05.399.152.504.102.105.26.158.475.158.278 0 .565-.074.863-.22v1.816c-.45.255-.978.382-1.584.382-.712 0-1.255-.174-1.628-.522-.374-.347-.56-.902-.56-1.665V79.17h-.77zm4.88 3.909l.856-1.406c.751.504 1.496.756 2.235.756.384 0 .575-.125.575-.375 0-.12-.078-.218-.234-.295-.157-.077-.427-.168-.81-.271-.29-.08-.536-.155-.74-.226a3.905 3.905 0 0 1-.621-.286 2.038 2.038 0 0 1-.508-.388 1.663 1.663 0 0 1-.314-.524 1.937 1.937 0 0 1-.123-.709c0-.687.24-1.222.722-1.606.481-.383 1.109-.574 1.883-.574.477 0 .95.067 1.42.202s.89.324 1.261.566l-.78 1.46a5.583 5.583 0 0 0-1.02-.444 3.046 3.046 0 0 0-.904-.164c-.172 0-.303.03-.393.09a.284.284 0 0 0-.135.25c0 .119.077.217.231.295.155.077.43.175.825.294.29.084.536.163.739.239.203.075.41.173.622.292.211.119.38.248.507.387s.232.31.314.515c.082.205.123.434.123.688 0 .711-.238 1.257-.715 1.639-.477.381-1.123.572-1.936.572-1.162 0-2.189-.326-3.08-.977zm9.782.828v-8.544h4.313c1.024 0 1.79.257 2.294.769.363.37.545.838.545 1.406 0 .886-.434 1.52-1.302 1.9.543.183.958.44 1.244.772.285.332.428.78.428 1.343 0 .735-.28 1.311-.842 1.728-.561.417-1.343.626-2.344.626H77.18zm2.271-1.9h1.801c.356 0 .632-.07.827-.21.196-.138.294-.339.294-.601a.655.655 0 0 0-.288-.563c-.191-.137-.477-.206-.856-.206H79.45v1.58zm0-3.236h1.467c.735 0 1.103-.256 1.103-.768a.624.624 0 0 0-.27-.542c-.18-.128-.442-.191-.786-.191H79.45v1.501zm5.965 2.854v-4.32h2.282v3.575c0 .354.084.627.253.82.168.192.393.288.674.288a.885.885 0 0 0 .684-.292c.178-.194.267-.466.267-.816v-3.574h2.282v6.6h-2.282v-.905c-.544.703-1.193 1.055-1.948 1.055-.688 0-1.23-.217-1.622-.65-.393-.433-.59-1.026-.59-1.781zm6.998 1.454l.856-1.406c.751.504 1.497.756 2.236.756.383 0 .575-.125.575-.375 0-.12-.079-.218-.235-.295-.156-.077-.426-.168-.81-.271-.289-.08-.535-.155-.739-.226a3.905 3.905 0 0 1-.622-.286 2.038 2.038 0 0 1-.507-.388 1.663 1.663 0 0 1-.314-.524 1.937 1.937 0 0 1-.123-.709c0-.687.24-1.222.721-1.606.481-.383 1.11-.574 1.884-.574.477 0 .95.067 1.42.202.469.135.89.324 1.26.566l-.78 1.46a5.583 5.583 0 0 0-1.02-.444 3.046 3.046 0 0 0-.904-.164c-.172 0-.303.03-.393.09a.284.284 0 0 0-.135.25c0 .119.077.217.232.295.154.077.43.175.824.294.29.084.536.163.74.239.203.075.41.173.621.292.212.119.38.248.508.387.127.139.232.31.314.515.082.205.123.434.123.688 0 .711-.239 1.257-.716 1.639-.477.381-1.122.572-1.936.572-1.162 0-2.188-.326-3.08-.977zm6.493-6.37V75h2.382v1.71h-2.382zm.053 7.198v-6.601h2.282v6.6H98.96zm3.378 0v-6.601h2.288v.929c.555-.719 1.203-1.078 1.942-1.078.688 0 1.229.216 1.622.65.393.432.59 1.026.59 1.78v4.32h-2.283v-3.575c0-.353-.083-.626-.249-.82a.835.835 0 0 0-.666-.288.89.89 0 0 0-.692.292c-.176.195-.264.467-.264.816v3.575h-2.288zm7.18-3.295c0-.476.08-.927.243-1.352.162-.425.386-.792.672-1.1a3.123 3.123 0 0 1 1.04-.732c.41-.181.85-.271 1.324-.271.544 0 1.029.096 1.455.289.426.192.77.456 1.033.792a3.6 3.6 0 0 1 .595 1.147c.135.429.202.892.202 1.388 0 .21-.003.37-.011.477h-4.354c.09.353.258.622.502.807.245.185.547.277.906.277.509 0 .99-.225 1.444-.673l1.261 1.06c-.692.898-1.635 1.347-2.828 1.347-.676 0-1.279-.143-1.807-.43a3.067 3.067 0 0 1-1.235-1.215c-.295-.524-.443-1.128-.443-1.81zm2.164-.548h2.259c-.043-.37-.164-.661-.364-.876a.996.996 0 0 0-.762-.321.974.974 0 0 0-.743.324c-.201.217-.331.508-.39.873zm4.704 3.015l.857-1.406c.75.504 1.496.756 2.235.756.383 0 .575-.125.575-.375 0-.12-.078-.218-.235-.295-.156-.077-.426-.168-.81-.271-.289-.08-.535-.155-.739-.226a3.905 3.905 0 0 1-.622-.286 2.038 2.038 0 0 1-.507-.388 1.663 1.663 0 0 1-.314-.524 1.937 1.937 0 0 1-.123-.709c0-.687.24-1.222.721-1.606.482-.383 1.11-.574 1.884-.574.477 0 .95.067 1.42.202.469.135.89.324 1.26.566l-.78 1.46a5.583 5.583 0 0 0-1.02-.444 3.046 3.046 0 0 0-.904-.164c-.172 0-.303.03-.393.09a.284.284 0 0 0-.135.25c0 .119.077.217.232.295.154.077.43.175.824.294.29.084.536.163.74.239.203.075.41.173.621.292.212.119.38.248.508.387.127.139.232.31.314.515.082.205.123.434.123.688 0 .711-.239 1.257-.716 1.639-.477.381-1.122.572-1.936.572-1.162 0-2.188-.326-3.08-.977zm5.883 0l.857-1.406c.75.504 1.496.756 2.235.756.383 0 .575-.125.575-.375 0-.12-.078-.218-.235-.295-.156-.077-.426-.168-.81-.271-.289-.08-.535-.155-.739-.226a3.905 3.905 0 0 1-.622-.286 2.038 2.038 0 0 1-.507-.388 1.663 1.663 0 0 1-.314-.524 1.937 1.937 0 0 1-.123-.709c0-.687.24-1.222.721-1.606.482-.383 1.11-.574 1.884-.574.477 0 .95.067 1.42.202.469.135.89.324 1.26.566l-.78 1.46a5.583 5.583 0 0 0-1.02-.444 3.046 3.046 0 0 0-.904-.164c-.172 0-.303.03-.393.09a.284.284 0 0 0-.135.25c0 .119.077.217.232.295.154.077.43.175.824.294.29.084.536.163.74.239.203.075.41.173.621.292.212.119.38.248.508.387.127.139.232.31.314.515.082.205.123.434.123.688 0 .711-.239 1.257-.716 1.639-.477.381-1.122.572-1.936.572-1.162 0-2.188-.326-3.08-.977zM27 96.582l1.302-1.573c.841.683 1.75 1.025 2.729 1.025.309 0 .545-.053.71-.158a.51.51 0 0 0 .246-.456c0-.182-.097-.331-.29-.446-.194-.116-.569-.239-1.124-.37-.286-.067-.533-.13-.742-.188a8.002 8.002 0 0 1-.666-.217 3.181 3.181 0 0 1-1.08-.62 1.807 1.807 0 0 1-.375-.437 2.167 2.167 0 0 1-.226-.552 2.652 2.652 0 0 1-.085-.69c0-.807.294-1.464.883-1.973.589-.508 1.38-.762 2.373-.762 1.38 0 2.535.377 3.462 1.132l-1.168 1.674c-.786-.56-1.57-.84-2.353-.84-.273 0-.483.052-.627.158a.489.489 0 0 0-.217.414c0 .198.096.352.29.461.194.11.582.232 1.165.367a9.65 9.65 0 0 1 1.314.378c.36.137.683.309.97.516.288.206.502.457.643.753.141.296.211.643.211 1.04 0 .862-.309 1.54-.927 2.037-.618.497-1.443.745-2.475.745-.76 0-1.479-.12-2.16-.36A5.156 5.156 0 0 1 27 96.582zm8.118-1.013V91.25h2.283v3.575c0 .353.084.626.252.819.168.192.393.289.675.289a.885.885 0 0 0 .683-.292c.178-.195.267-.467.267-.816V91.25h2.282v6.601h-2.282v-.906C38.734 97.65 38.085 98 37.33 98c-.688 0-1.229-.216-1.622-.65-.393-.432-.59-1.026-.59-1.78zm7.49 2.282V91.25h2.289v.906c.544-.703 1.187-1.055 1.93-1.055.43 0 .808.093 1.133.28.324.187.573.453.745.798.3-.353.624-.621.97-.804a2.533 2.533 0 0 1 1.2-.274c.697 0 1.241.212 1.634.635.393.423.59 1.017.59 1.784v4.331h-2.282v-3.586c0-.354-.08-.625-.238-.814-.158-.188-.374-.283-.648-.283a.875.875 0 0 0-.678.286c-.174.19-.26.461-.26.81v3.587H46.71v-3.586c0-.354-.08-.625-.24-.814-.161-.188-.378-.283-.652-.283-.278 0-.5.096-.669.286-.168.19-.252.461-.252.81v3.587h-2.288zm11.493 0V91.25h2.288v.906c.543-.703 1.187-1.055 1.93-1.055.43 0 .808.093 1.132.28.325.187.573.453.745.798.302-.353.625-.621.971-.804a2.533 2.533 0 0 1 1.2-.274c.696 0 1.241.212 1.634.635.393.423.59 1.017.59 1.784v4.331h-2.282v-3.586c0-.354-.08-.625-.238-.814-.159-.188-.375-.283-.648-.283a.875.875 0 0 0-.678.286c-.174.19-.261.461-.261.81v3.587h-2.282v-3.586c0-.354-.08-.625-.24-.814-.161-.188-.378-.283-.652-.283-.278 0-.5.096-.669.286-.168.19-.252.461-.252.81v3.587H54.1zm11.491-7.197v-1.71h2.382v1.71h-2.382zm.053 7.197V91.25h2.283v6.601h-2.283zm3.009-4.736V91.25h.768v-1.674h2.282v1.674h1.514v1.865h-1.514v2.234c0 .23.051.398.153.503.102.106.26.158.475.158.278 0 .565-.073.863-.22v1.817c-.45.254-.978.381-1.585.381-.711 0-1.254-.174-1.628-.521-.373-.348-.56-.903-.56-1.665v-2.687h-.768z"/>
    </g>
</svg>
