<svg xmlns="http://www.w3.org/2000/svg" xmlns:xlink="http://www.w3.org/1999/xlink" width="271" height="54" viewBox="0 0 271 54">
    <defs>
        <path id="a" d="M.513.118h72.983V54H.513z"/>
        <path id="c" d="M.046.285h11.436v15.347H.046z"/>
        <path id="e" d="M0 .282h7.56v7.56H0z"/>
    </defs>
    <g fill="none" fill-rule="evenodd">
        <g transform="translate(97)">
            <mask id="b" fill="#fff">
                <use xlink:href="#a"/>
            </mask>
            <path fill="#FFF" d="M5.808 19.617h3.326c-.217 1.492-3.068 1.781-3.326 0zm63.643 2.739L73.496.118S56.224 10.94 54.156 13.267l8.25-.24C56.57 23.977 43.28 32.816 28.716 34.91l-.229-.657c14.93-5.058 21.283-11.667 27.078-18.727H18.01c8.112 4.35 5.431 11.67 1.498 16.928-.27.361-1.761 2.538-3.043 2.467-.091-.013-.183-.024-.274-.038-.598-.142-2.12-.806-.868-3.837.414-1.001 1.134-2.403 1.302-3.526.92-6.151-4.433-8.075-4.967-8.434l-.017-.003 3.624-3.557-7.838.24-2.805 3.154H1.575L.513 24.48s1.143-.696 5.045-1.513c3.835-.804 5.07.901 5.07.901 1.273.96.717 3.152.167 4.58-.301.78-1.364 2.476-1.364 2.476s-3.177 4.54-4.07 6.441a6.327 6.327 0 0 0-.644 2.59c-.077 2.491 1.287 4.697 3.356 5.854v5.745H8.1L2.76 53.979h4.865l3.949-2.343v-3.01c-.736-.639-2.61-2.186-3.268-2.728 1.294.489 2.934.728 4.423.713 1.025-.063 2.04-.15 3.05-.256v5.238L11.546 54h5.738c.847-1.163 1.297-1.163 1.985-2.132v-5.97a69.514 69.514 0 0 0 4.39-.832c1.45 2.922 5.722 4.882 5.825 4.941L20.927 54h11.221l-.945-2.326 3.726-2.265s-4.476-1.42-6.722-5.519a68.54 68.54 0 0 0 3.301-1.063c1.13 1.91 3.125 4.135 6.56 5.19.779.24 10.415 3.669 10.415 3.669L42.726 54h12.166l-.788-2.314c-4.637-1.14-8.12-4.395-7.618-8.244-4.806 1.018-7.853-1.854-8.64-3.114.624-.313 2.723-1.451 3.334-1.782 3.882-1.74 7.507-4.321 10.845-7.388 5.745-4.854 10.49-10.642 13.94-17.08a1.318 1.318 0 0 1-.187-.084c.03-.05.063-.1.094-.15l3.58 8.512z" mask="url(#b)"/>
        </g>
        <path fill="#FFF" d="M16.303 30.002h.111c1.411 0 2.823.001 4.235-.002.082 0 .119.025.149.1 1.073 2.612 2.149 5.223 3.224 7.833l1.188 2.884.053.12c.082-.21.157-.397.23-.586l1.795-4.627 2.185-5.633c.024-.06.047-.091.121-.091 1.375.003 2.75.002 4.126.002l.073.004c-.056.075-.109.138-.15.207-.146.247-.316.485-.425.748-.14.342-.137.708-.09 1.075.084.64.157 1.279.234 1.919l.23 1.886.228 1.898c.09.755.183 1.508.274 2.263l.248 2.059c.065.539.111 1.082.2 1.617.118.701.488 1.253 1.084 1.653l.374.253h-5.253c.108-.113.208-.22.311-.324.47-.47.562-1.055.507-1.678-.045-.527-.108-1.054-.162-1.58l-.208-1.998a2651.297 2651.297 0 0 1-.396-3.815l-.18-1.762c-.035-.336-.07-.672-.125-1.011L25.568 46c-.312-.128-.61-.263-.869-.48a4.566 4.566 0 0 1-1.266-1.73c-.522-1.22-1.049-2.44-1.567-3.662-.933-2.202-1.861-4.407-2.792-6.611-.015-.035-.033-.07-.061-.13l-.108.785-.319 2.353-.313 2.333-.362 2.664c-.096.71-.205 1.419-.283 2.13-.04.376-.015.757.164 1.108.133.261.336.467.55.663l.183.162H14c.05-.038.087-.067.125-.094.287-.203.56-.42.772-.708.26-.354.41-.752.476-1.18.158-1.013.304-2.028.454-3.043l.421-2.862c.15-1.004.3-2.008.448-3.012.121-.816.245-1.63.357-2.447.036-.259.057-.522.053-.783-.007-.37-.178-.686-.403-.971-.125-.159-.257-.312-.4-.483M54.894 37.496a7.121 7.121 0 0 0-.138-1.588c-.264-1.265-.826-2.404-1.766-3.368-.998-1.025-2.24-1.642-3.757-1.742-1.062-.07-2.081.081-3.04.527-1.122.52-1.922 1.316-2.44 2.353-.42.84-.602 1.728-.622 2.646-.012.6.056 1.197.182 1.786a6.678 6.678 0 0 0 1.133 2.534 6.032 6.032 0 0 0 1.65 1.57c.895.572 1.88.907 2.975.973.725.044 1.436-.014 2.12-.24 1.474-.486 2.476-1.432 3.097-2.726.415-.866.592-1.782.606-2.725M58 37.092c-.021 1.12-.221 2.206-.693 3.245a7.208 7.208 0 0 1-2.1 2.696c-.824.656-1.764 1.13-2.794 1.458-.927.295-1.884.447-2.864.493-1.153.054-2.29-.024-3.4-.322-2.43-.652-4.226-1.996-5.31-4.102a7.509 7.509 0 0 1-.774-2.584 8.65 8.65 0 0 1-.014-1.974 7.207 7.207 0 0 1 1.635-3.848c.818-.994 1.86-1.74 3.08-2.28a9.978 9.978 0 0 1 3.05-.802c1.509-.154 3-.073 4.448.362 1.936.582 3.476 1.637 4.527 3.25.571.877.93 1.827 1.095 2.838a8.73 8.73 0 0 1 .114 1.57M235.833 40.848v-.227c0-2.83-.013-5.66.009-8.49.006-.801-.254-1.467-.853-2.023-.025-.024-.048-.05-.09-.092H239c-.129.152-.246.293-.366.432-.35.405-.553.86-.535 1.391.003.093-.003.186-.003.28V46c-.412-.08-.792-.179-1.147-.367a8.963 8.963 0 0 1-2.669-2.162c-2.589-3.06-5.192-6.11-7.79-9.163-.028-.033-.059-.065-.107-.116-.004.063-.01.105-.01.145l.001 9.094c.001.69.272 1.257.878 1.668.095.064.186.135.3.22H223c.108-.09.193-.166.285-.235.56-.421.807-.972.808-1.643.01-3.845.022-7.69.045-11.535a2.093 2.093 0 0 0-.61-1.526l-.35-.37c.075-.003.125-.008.174-.008 1.074 0 2.148.001 3.222-.002.098 0 .159.027.22.1a11265.376 11265.376 0 0 0 8.955 10.66c.015.018.034.035.084.088M245.9 43.848c.032.007.05.012.07.015.772.137 1.549.16 2.33.115.804-.046 1.585-.195 2.333-.508 1.67-.698 2.684-1.98 3.134-3.751.246-.97.275-1.96.151-2.953-.088-.711-.28-1.392-.623-2.015-.704-1.281-1.792-2.062-3.14-2.486-.886-.28-1.799-.368-2.721-.362-.482.002-.962.02-1.432.159-.128.037-.158.086-.158.214.021 3.8.039 7.602.056 11.403v.169m-3.9 2.147l.225-.216c.522-.492.765-1.108.766-1.828.004-3.443.006-6.886.007-10.329 0-.587.006-1.176-.012-1.763a2.022 2.022 0 0 0-.58-1.388c-.132-.137-.259-.28-.402-.435.046-.008.076-.018.106-.018 2.236-.005 4.473-.034 6.709-.006 1.581.018 3.104.366 4.511 1.136 1.686.923 2.84 2.32 3.34 4.227.549 2.098.428 4.17-.473 6.148-.933 2.05-2.494 3.37-4.603 4.004-.985.295-1.995.42-3.015.432-2.161.028-4.323.03-6.486.041-.019 0-.038-.002-.093-.005M199.2 37.652h3.8v7.654c-.387.085-.777.175-1.17.257-1.665.346-3.35.465-5.048.431-1.147-.023-2.282-.155-3.369-.538-1.876-.662-3.349-1.81-4.362-3.483a7.063 7.063 0 0 1-1.034-4.209c.157-2.323 1.214-4.208 3.05-5.69 1.306-1.053 2.82-1.656 4.491-1.908 1.01-.151 2.025-.2 3.044-.142.812.046 1.61.18 2.401.356.041.009.1.07.101.108.005.884.003 1.769.002 2.653 0 .008-.008.016-.016.028-.257-.152-.51-.309-.77-.452a6.012 6.012 0 0 0-2.51-.726c-1.047-.072-2.075.027-3.063.384-1.232.446-2.227 1.185-2.916 2.282-.8 1.27-1.011 2.654-.84 4.112.109.917.414 1.765.93 2.54a5.549 5.549 0 0 0 1.961 1.79c1.07.596 2.23.887 3.459.913.537.012 1.08.015 1.613-.042.364-.038.714-.188 1.072-.285.097-.026.08-.096.08-.163 0-1.33.001-2.658-.001-3.987-.001-.156-.016-.313-.042-.467-.082-.491-.357-.883-.694-1.242l-.17-.174"/>
        <g transform="translate(259 29)">
            <mask id="d" fill="#fff">
                <use xlink:href="#c"/>
            </mask>
            <path fill="#FFF" d="M.046 12.005c.092.055.157.092.219.132 1.081.704 2.32 1.064 3.596 1.345a6.594 6.594 0 0 0 1.811.169c.887-.051 1.707-.272 2.351-.862.635-.581.752-1.472.295-2.12-.19-.272-.473-.455-.76-.632-.82-.504-1.722-.862-2.634-1.204-.687-.259-1.38-.511-2.043-.814-.948-.433-1.682-1.08-2.143-1.958C.363 5.345.29 4.594.451 3.824c.256-1.212 1.039-2.08 2.205-2.683C3.748.577 4.942.357 6.184.298c1.261-.06 2.494.079 3.707.393.072.019.116.04.116.12-.004.851-.003 1.701-.003 2.552 0 .017-.007.035-.016.078-.082-.056-.15-.104-.22-.15-.526-.345-1.044-.706-1.677-.886-1.124-.318-2.252-.367-3.364.031-.572.205-1.044.538-1.263 1.085-.268.672-.034 1.369.596 1.84.581.435 1.254.726 1.938.994.846.332 1.716.62 2.544.984.888.392 1.684.91 2.303 1.625.296.342.498.723.62 1.14.013.045.01.094.011.141.001.442-.013.884.006 1.325.012.305-.079.584-.198.856-.432.988-1.198 1.716-2.202 2.247-1.038.548-2.166.838-3.359.924a13.652 13.652 0 0 1-4.2-.347c-.05-.012-.1-.036-.15-.041-.347-.034-.48-.224-.558-.52-.228-.852-.492-1.695-.74-2.543-.01-.035-.015-.072-.029-.141" mask="url(#d)"/>
        </g>
        <path fill="#FFF" d="M173.199 30h9.714v3.291c-.134-.161-.252-.307-.374-.451-.428-.507-.975-.75-1.662-.742-1.161.013-2.321.004-3.482.004h-.188v4.323h4.216v2.774l-.03.03c-.083-.089-.161-.184-.25-.266-.368-.34-.81-.55-1.315-.575-.869-.042-1.74-.046-2.621-.066v5.5c.28.039.563.08.848.114a15.88 15.88 0 0 0 2.722.093c.935-.046 1.869-.138 2.729-.533.384-.175.743-.4 1.112-.606.12-.067.232-.144.382-.237l-.103.302c-.35.976-.703 1.951-1.05 2.928-.03.089-.071.117-.168.117-3.525-.002-7.05-.002-10.576-.002-.025 0-.05-.002-.103-.005.154-.134.289-.254.428-.37.464-.389.671-.893.678-1.47.014-1.29.014-2.582.017-3.872.007-2.69-.006-5.38.027-8.07.01-.782-.217-1.435-.769-1.998-.057-.06-.107-.126-.182-.213M216.915 33.272c-.194-.219-.37-.43-.562-.627a1.807 1.807 0 0 0-1.33-.546c-1.246-.004-2.492-.001-3.737-.001-.022 0-.043.003-.075.006v4.317h4.215v2.83c-.104-.11-.176-.196-.258-.272-.373-.348-.821-.569-1.339-.594-.868-.042-1.738-.046-2.618-.066v5.5c.28.04.564.08.849.116.903.11 1.812.137 2.72.093.935-.047 1.867-.14 2.728-.533.374-.172.724-.39 1.084-.592.127-.072.25-.154.408-.252-.048.143-.084.252-.123.36-.34.948-.68 1.895-1.018 2.843-.034.098-.073.147-.197.146-3.507-.004-7.014-.003-10.52-.003H207c.157-.136.288-.253.423-.366.472-.39.683-.898.69-1.48.014-1.292.012-2.583.016-3.875.006-2.685-.006-5.37.027-8.056.01-.786-.211-1.446-.768-2.013-.059-.059-.109-.126-.177-.207h9.704v3.272zM171 42.7l-1.186 3.3h-10.78l-.034-.037c.042-.025.09-.047.127-.078.666-.554 1.009-1.227 1.005-2.098-.02-3.901-.01-7.803-.008-11.705 0-.552-.074-1.084-.423-1.546-.134-.178-.28-.348-.431-.536h4.918c-.054.064-.102.114-.143.17-.229.314-.472.62-.676.948-.178.287-.208.62-.208.952v11.613c0 .092.006.156.127.165.79.057 1.576.156 2.366.17 1.048.021 2.093-.082 3.12-.303.663-.144 1.251-.461 1.822-.808.125-.077.252-.152.377-.228l.027.02M89.046 43.668c-.838.264-1.706.343-2.58.372-.775.025-1.552.002-2.324-.087-.34-.04-.678-.086-1.016-.13v-5.485c.21 0 .412-.003.615 0 .678.014 1.357.015 2.034.049.467.023.883.2 1.235.498.129.109.253.223.386.34v-2.802h-4.27v-4.32c.024-.002.042-.004.062-.004 1.264 0 2.528 0 3.792.002.308 0 .602.065.875.205.407.208.688.539.952.884l.087.113V30h-9.807c.152.182.303.352.443.53.223.283.416.582.46.943a4.9 4.9 0 0 1 .037.587c-.005 3.307-.013 6.616-.02 9.923 0 .677.003 1.355-.003 2.032-.004.52-.122.995-.466 1.385l-.538.598c3.557 0 7.114 0 10.671.002.096 0 .134-.03.163-.111.341-.947.686-1.892 1.03-2.837.044-.124.085-.25.136-.397-.263.16-.501.305-.742.448a5.77 5.77 0 0 1-1.212.565M76 45.996c-.08-.053-.865-.57-.943-.623a8.416 8.416 0 0 1-1.225-1.026c-1.711-1.736-3.374-3.516-4.806-5.497-.196-.272-.403-.536-.61-.813.04-.011.066-.02.095-.026.511-.117 1.015-.255 1.496-.469a3.92 3.92 0 0 0 1.77-1.526c.434-.695.59-1.463.524-2.28-.08-.954-.495-1.737-1.205-2.366-.632-.56-1.388-.887-2.197-1.099-.755-.2-1.527-.268-2.306-.27-1.797-.002-3.595 0-5.392 0-.03 0-.061.004-.1.007.131.168.265.317.374.483.153.23.327.458.416.713.096.277.139.583.146.879.019.99.011 1.982.015 2.973.011 3.002.025 6.005.03 9.007.001.213-.033.429-.082.635-.094.403-.343.714-.644.986-.113.102-.232.2-.356.306h5.068c-.05-.042-.085-.068-.117-.098-.207-.205-.43-.397-.617-.62-.315-.371-.384-.826-.384-1.299V31.892c.416 0 .822-.01 1.228.002.466.013.928.068 1.379.195.428.12.827.3 1.155.607.36.336.558.757.62 1.242.14 1.08-.199 1.965-1.091 2.615-.658.479-1.411.73-2.195.902-.278.06-.558.107-.844.162.023.04.041.075.063.108.637.964 1.261 1.938 1.914 2.891.911 1.33 1.872 2.623 2.93 3.84.421.485.862.946 1.44 1.25.32.167.651.294 1.022.294h2.724l.705-.004z"/>
        <g transform="translate(0 33)">
            <mask id="f" fill="#fff">
                <use xlink:href="#e"/>
            </mask>
            <path fill="#FFF" d="M7.56 4.062l-3.78 3.78L0 4.061 3.78.282z" mask="url(#f)"/>
        </g>
    </g>
</svg>
